<?xml version="1.0" standalone="no"?>
<!DOCTYPE svg PUBLIC "-//W3C//DTD SVG 20010904//EN"
 "http://www.w3.org/TR/2001/REC-SVG-20010904/DTD/svg10.dtd">
<svg version="1.0" xmlns="http://www.w3.org/2000/svg"
 width="300.000000pt" height="300.000000pt" viewBox="0 0 300.000000 300.000000"
 preserveAspectRatio="xMidYMid meet">
<metadata>
Created by potrace 1.11, written by Peter Selinger 2001-2013
</metadata>
<g transform="translate(0.000000,300.000000) scale(0.100000,-0.100000)"
fill="#000000" stroke="none">
<path d="M3 1501 l0 -1497 1497 0 1497 -1 0 1497 0 1497 -1497 0 -1497 1 0
-1497z m2237 649 c51 -47 108 -98 125 -115 18 -16 75 -68 126 -115 51 -47 120
-110 154 -142 33 -31 72 -66 87 -77 l27 -22 -2 -717 -2 -717 -1257 -1 -1256
-1 0 723 0 723 66 21 c37 12 114 36 172 54 58 19 166 53 240 76 74 23 189 59
255 81 66 21 192 60 280 88 88 28 315 99 505 159 l345 108 21 -20 c11 -12 63
-59 114 -106z"/>
<path d="M844 1550 c-47 -21 -68 -43 -89 -93 -30 -73 -10 -146 57 -200 64 -52
163 -44 225 18 130 133 -24 352 -193 275z"/>
<path d="M2043 1559 c-44 -13 -99 -71 -111 -119 -29 -115 49 -215 168 -215 66
1 105 21 139 73 90 137 -37 306 -196 261z"/>
<path d="M2066 889 c-85 -73 -222 -142 -346 -174 -84 -21 -112 -24 -235 -21
-106 3 -158 9 -215 25 -106 31 -223 91 -305 155 -38 31 -76 59 -83 62 -12 6
-112 -84 -112 -101 0 -24 163 -143 266 -194 159 -78 310 -113 482 -110 266 4
507 99 702 278 l30 27 -58 56 -57 56 -69 -59z"/>
</g>
</svg>
